<svg width="24" height="24" viewBox="0 0 24 24" fill="none" xmlns="http://www.w3.org/2000/svg">
<g clip-path="url(#clip0_5_947)">
<path fill-rule="evenodd" clip-rule="evenodd" d="M21 4.5H3C2.17157 4.5 1.5 5.17157 1.5 6V8.25C1.5 9.07843 2.17157 9.75 3 9.75V18C3 18.8284 3.67157 19.5 4.5 19.5H19.5C20.3284 19.5 21 18.8284 21 18V9.75C21.8284 9.75 22.5 9.07843 22.5 8.25V6C22.5 5.17157 21.8284 4.5 21 4.5ZM19.5 18H4.5V9.75H19.5V18ZM21 8.25H3V6H21V8.25ZM9 12.75C9 12.3358 9.33579 12 9.75 12H14.25C14.6642 12 15 12.3358 15 12.75C15 13.1642 14.6642 13.5 14.25 13.5H9.75C9.33579 13.5 9 13.1642 9 12.75Z" fill="#121417"/>
</g>
<defs>
<clipPath id="clip0_5_947">
<rect width="24" height="24" fill="white"/>
</clipPath>
</defs>
</svg>
