<svg width="24" height="24" viewBox="0 0 24 24" fill="none" xmlns="http://www.w3.org/2000/svg">
<g clip-path="url(#clip0_5_909)">
<path fill-rule="evenodd" clip-rule="evenodd" d="M20.25 3H8.25C7.83579 3 7.5 3.33579 7.5 3.75V7.5H3.75C3.33579 7.5 3 7.83579 3 8.25V20.25C3 20.6642 3.33579 21 3.75 21H15.75C16.1642 21 16.5 20.6642 16.5 20.25V16.5H20.25C20.6642 16.5 21 16.1642 21 15.75V3.75C21 3.33579 20.6642 3 20.25 3ZM15 19.5H4.5V9H15V19.5ZM19.5 15H16.5V8.25C16.5 7.83579 16.1642 7.5 15.75 7.5H9V4.5H19.5V15Z" fill="#121417"/>
</g>
<defs>
<clipPath id="clip0_5_909">
<rect width="24" height="24" fill="white"/>
</clipPath>
</defs>
</svg>
