<svg width="24" height="24" viewBox="0 0 24 24" fill="none" xmlns="http://www.w3.org/2000/svg">
<g clip-path="url(#clip0_5_961)">
<path fill-rule="evenodd" clip-rule="evenodd" d="M5.055 3.24563C4.87576 3.04358 4.60173 2.95351 4.33757 3.00983C4.07341 3.06615 3.85994 3.26015 3.77869 3.51773C3.69744 3.77531 3.76097 4.05668 3.945 4.25437L5.51438 5.98125C4.84787 7.12525 4.49777 8.426 4.5 9.75C4.5 13.0631 3.72563 15.5981 3.20531 16.4944C2.93487 16.9581 2.9329 17.5311 3.20016 17.9967C3.46741 18.4623 3.96313 18.7496 4.5 18.75H8.325C8.67989 20.4977 10.2166 21.7538 12 21.7538C13.7834 21.7538 15.3201 20.4977 15.675 18.75H17.1225L18.945 20.7544C19.1242 20.9564 19.3983 21.0465 19.6624 20.9902C19.9266 20.9339 20.1401 20.7399 20.2213 20.4823C20.3026 20.2247 20.239 19.9433 20.055 19.7456L5.055 3.24563ZM12 20.25C11.0467 20.2497 10.1971 19.6487 9.87938 18.75H14.1206C13.8029 19.6487 12.9533 20.2497 12 20.25ZM4.5 17.25C5.22188 16.0088 6 13.1325 6 9.75C5.99869 8.85375 6.19928 7.96872 6.58687 7.16062L15.7584 17.25H4.5ZM20.0625 16.8066C19.9749 16.8405 19.8818 16.858 19.7878 16.8581C19.4795 16.8578 19.2028 16.6689 19.0903 16.3819C18.4078 14.6428 18 12.1641 18 9.75C18.0006 7.61439 16.866 5.63943 15.0208 4.56421C13.1756 3.48899 10.898 3.47561 9.04031 4.52906C8.68125 4.72362 8.23253 4.59514 8.03085 4.24003C7.82917 3.88492 7.94867 3.43372 8.29969 3.225C10.6217 1.90793 13.4687 1.92436 15.7754 3.26814C18.082 4.61192 19.5005 7.08049 19.5 9.75C19.5 13.0641 20.2547 15.2428 20.4862 15.8325C20.6376 16.218 20.4479 16.6532 20.0625 16.8047V16.8066Z" fill="#121417"/>
</g>
<defs>
<clipPath id="clip0_5_961">
<rect width="24" height="24" fill="white"/>
</clipPath>
</defs>
</svg>
