<svg width="24" height="24" viewBox="0 0 24 24" fill="none" xmlns="http://www.w3.org/2000/svg">
<g clip-path="url(#clip0_5_888)">
<path fill-rule="evenodd" clip-rule="evenodd" d="M21 12C21.0004 16.9237 17.0442 20.9338 12.1209 21H12C9.70148 21.0057 7.48902 20.1261 5.82188 18.5438C5.52079 18.259 5.50757 17.784 5.79234 17.483C6.07712 17.1819 6.55204 17.1687 6.85313 17.4534C9.84565 20.2756 14.5529 20.1609 17.4044 17.1962C20.2558 14.2316 20.1873 9.5234 17.2508 6.64296C14.3143 3.76252 9.60572 3.78476 6.69656 6.69281C6.6889 6.7011 6.68076 6.70892 6.67219 6.71625L4.18031 9H6.75C7.16421 9 7.5 9.33579 7.5 9.75C7.5 10.1642 7.16421 10.5 6.75 10.5H2.25C1.83579 10.5 1.5 10.1642 1.5 9.75V5.25C1.5 4.83579 1.83579 4.5 2.25 4.5C2.66421 4.5 3 4.83579 3 5.25V8.04375L5.64844 5.625C8.22499 3.05845 12.093 2.29478 15.4516 3.68952C18.8103 5.08426 20.9995 8.36327 21 12Z" fill="#121417"/>
</g>
<defs>
<clipPath id="clip0_5_888">
<rect width="24" height="24" fill="white"/>
</clipPath>
</defs>
</svg>
