<svg width="2" height="14" viewBox="0 0 2 14" fill="none" xmlns="http://www.w3.org/2000/svg">
<path fill-rule="evenodd" clip-rule="evenodd" d="M1.9375 7C1.9375 7.51777 1.51777 7.9375 1 7.9375C0.482233 7.9375 0.0625 7.51777 0.0625 7C0.0625 6.48223 0.482233 6.0625 1 6.0625C1.51777 6.0625 1.9375 6.48223 1.9375 7ZM1 2.625C1.51777 2.625 1.9375 2.20527 1.9375 1.6875C1.9375 1.16973 1.51777 0.75 1 0.75C0.482233 0.75 0.0625 1.16973 0.0625 1.6875C0.0625 2.20527 0.482233 2.625 1 2.625ZM1 11.375C0.482233 11.375 0.0625 11.7947 0.0625 12.3125C0.0625 12.8303 0.482233 13.25 1 13.25C1.51777 13.25 1.9375 12.8303 1.9375 12.3125C1.9375 11.7947 1.51777 11.375 1 11.375Z" />
</svg>
